<svg
    width="480"
    height="84.5"
    viewBox="0 0 507.99993 89.40089"
    version="1.1"
    id="svg1"
    xmlns="http://www.w3.org/2000/svg"
    xmlns:svg="http://www.w3.org/2000/svg">
   <defs
      id="defs1" />
   <g
      id="layer1"
      transform="translate(9.1269613e-6,-98.17456)">
     <path
        d="m 15.513053,126.28406 q -0.16908,0.16908 -0.972209,0.16908 -0.676318,0 -1.183558,-0.16908 l -2.747545,-5.6219 Q 8.9189446,117.99915 6.0023199,117.06921 3.1279652,116.09701 2.4516464,114.95572 1.8175976,113.0113 -9.1269612e-6,108.99566 v -0.97221 H 1.6485179 q 3.254784,1.01448 5.2837403,1.90215 3.3393238,1.47945 4.4806118,3.42386 0.634049,1.05675 1.944416,5.41055 1.225828,4.10018 2.071227,5.70644 0.08454,0.76086 0.08454,1.81761 z m 2.493925,9.51073 H 0.80311941 V 130.7224 H 18.006978 Z m -4.818771,41.76268 -7.1013472,-3.9311 v -32.63238 h 7.1013472 z m 49.49808,-41.76268 H 17.24612 v -5.07239 h 45.440167 z m -9.088033,18.5565 q 0,-10.14478 -9.595273,-10.14478 -7.101347,0 -11.877848,7.4395 -4.226992,6.59411 -4.226992,14.03362 v 12.30054 l -6.932268,-3.63521 V 142.55798 H 28.2363 v 5.03012 l 3.762023,-2.83209 q 4.987851,-3.76202 10.525211,-3.76202 7.524046,0 12.469627,5.83325 4.649692,5.49509 4.649692,13.14595 0,9.59527 -8.115825,18.42968 l -8.158096,-5.11466 q 3.804294,-3.76202 6.467299,-6.93227 3.762023,-4.48061 3.762023,-12.00465 z m 57.064396,-18.5565 h -5.53736 l -0.0845,41.29772 -7.693127,-3.29706 v -6.0446 q -6.847727,8.83442 -13.441835,8.83442 -4.184723,0 -9.130304,-3.50841 -4.226992,-3.00116 -7.016807,-7.0168 -3.297054,-4.73424 -3.254784,-9.21485 0.04227,-4.10018 4.522882,-9.51073 5.030121,-6.08687 12.131468,-6.08687 4.522882,0 9.088033,3.84656 1.394908,1.14129 7.101347,7.35497 V 135.79479 H 61.164569 v -5.07239 h 36.183054 q 0,-8.74987 -1.479447,-13.69546 -2.198036,-7.35496 -9.806622,-17.499743 -0.16908,-0.08454 -0.16908,-0.676319 0,-0.507239 0.25362,-0.676319 h 8.073555 Q 105.12529,110.22149 105.12529,130.7224 h 5.53736 z m -15.343983,19.23282 q 0,-3.29706 -3.592943,-5.66417 -3.212515,-2.1135 -6.678648,-2.1135 -2.536196,0 -6.340489,2.36712 -8.284905,5.15693 -8.284905,12.17373 0,3.84657 2.071227,6.67865 2.282575,3.17025 5.960059,3.17025 3.804293,0 8.115825,-3.46614 3.001164,-2.40938 5.57963,-5.91779 3.170244,-4.31153 3.170244,-7.22815 z m 56.979853,-19.23282 h -42.73489 v -5.07239 h 42.73489 z m -3.5084,15.1749 q 0,2.49393 -3.00116,5.6219 -2.5362,2.66301 -5.32601,3.97338 l -6.34049,-7.18589 q 2.87435,-0.25362 5.45282,-2.1135 2.95889,-2.11349 2.95889,-4.81877 0,-1.43718 -1.85987,-2.45165 -1.60626,-0.92994 -3.17025,-0.92994 -3.25478,0 -6.97454,3.12797 -7.56631,6.34049 -7.56631,14.03362 v 17.92244 l -8.11583,-4.22699 v -31.27974 h 8.20037 v 3.21251 q 1.8176,-1.8176 7.52404,-3.80429 2.78982,-0.97221 5.74871,-0.97221 6.12914,0 10.3984,4.69196 2.07123,2.28258 2.07123,5.1992 z m 44.04526,-15.1749 h -28.15177 v 6.76319 q 0.16908,0 0.33816,0.16908 0.16908,0.16908 0.29589,0.16908 -0.33816,0 -0.38043,-0.0423 0,-0.21135 6.29822,-1.35264 2.32484,-0.4227 4.60742,-0.4227 9.51073,0 12.21601,5.32601 1.8176,3.55067 1.8176,14.32951 v 16.27392 q -0.88767,-0.33816 -6.72092,-2.74755 0,-1.35264 -0.5495,-1.73307 -2.24031,1.31037 -3.67749,1.98669 -4.56515,2.15577 -10.60975,2.15577 -8.32717,0 -12.85005,-5.24147 -2.19804,-2.5362 -2.19804,-5.66417 0,-3.50841 3.46613,-6.97454 6.72092,-6.72092 16.69662,-6.72092 6.0446,0 9.72208,2.78982 v -3.88884 q -1.85987,-2.36711 -3.63521,-3.17024 -1.73307,-0.80313 -4.7765,-0.71859 -6.80546,0.12681 -12.46963,2.49393 -2.53619,1.05674 -4.94558,1.90214 v -3.12797 q 0.54951,-0.46497 1.60626,-1.39491 0.16908,-0.21135 0.21135,-0.25362 v -10.90564 h -8.66534 v -5.07239 h 42.35447 z m -9.67982,26.75686 q 0,-1.85987 -4.43834,-3.33932 -3.67748,-1.22583 -6.12914,-1.22583 -8.91895,0 -14.28723,6.42503 -2.15577,2.57846 -2.15577,4.22699 0.88767,3.0857 6.97454,3.0857 7.86221,0 14.37178,-3.9311 5.66416,-3.42386 5.66416,-5.24147 z m 58.16343,-26.75686 h -5.53736 l -0.0845,41.29772 -7.69313,-3.29706 v -6.0446 q -6.84772,8.83442 -13.44183,8.83442 -4.18472,0 -9.1303,-3.50841 -4.227,-3.00116 -7.01681,-7.0168 -3.29706,-4.73424 -3.25479,-9.21485 0.0423,-4.10018 4.52289,-9.51073 5.03012,-6.08687 12.13146,-6.08687 4.52289,0 9.08804,3.84656 1.39491,1.14129 7.10134,7.35497 V 135.79479 H 191.82095 V 130.7224 H 228.004 q 0,-8.74987 -1.47944,-13.69546 -2.19804,-7.35496 -9.80662,-17.499743 -0.16908,-0.08454 -0.16908,-0.676319 0,-0.507239 0.25362,-0.676319 h 8.07355 q 10.90564,12.046931 10.90564,32.547841 h 5.53736 z m -15.34398,19.23282 q 0,-3.29706 -3.59294,-5.66417 -3.21252,-2.1135 -6.67865,-2.1135 -2.5362,0 -6.34049,2.36712 -8.28491,5.15693 -8.28491,12.17373 0,3.84657 2.07123,6.67865 2.28258,3.17025 5.96006,3.17025 3.80429,0 8.11582,-3.46614 3.00117,-2.40938 5.57963,-5.91779 3.17025,-4.31153 3.17025,-7.22815 z m 61.08002,-19.23282 h -34.11182 v 12.72325 q 4.60742,-5.03012 8.53852,-6.4673 2.19804,-0.80313 4.94558,-0.80313 10.31386,0 15.42852,10.14478 2.24031,4.43834 2.24031,8.74988 0,7.8622 -6.4673,14.20269 -2.15577,2.1135 -3.21251,2.91662 l -6.93227,-4.14245 q 2.62073,-2.74754 5.96006,-6.76319 3.76202,-4.52288 3.80429,-11.41287 0.0423,-4.10019 -1.85988,-6.84773 -2.15576,-3.21252 -6.08686,-3.12798 -3.63522,0.0845 -7.77767,2.74755 -3.71975,2.36711 -6.17141,5.66417 -2.663,3.55067 -2.663,6.84773 v 16.78116 l -7.90448,-4.227 v -36.98618 h -4.64969 v -5.07239 h 4.64969 q 0,-12.42736 -6.4673,-21.2195 -3.88883,-5.28374 -7.18588,-7.43951 l 8.53852,-0.0845 q 7.10135,3.88884 11.28607,16.78116 1.98669,6.12914 1.98669,11.96239 h 34.11182 z m 40.83276,0 h -28.15177 v 6.76319 q 0.16908,0 0.33816,0.16908 0.16908,0.16908 0.29589,0.16908 -0.33816,0 -0.38043,-0.0423 0,-0.21135 6.29822,-1.35264 2.32485,-0.4227 4.60742,-0.4227 9.51073,0 12.21601,5.32601 1.81761,3.55067 1.81761,14.32951 v 16.27392 q -0.88767,-0.33816 -6.72092,-2.74755 0,-1.35264 -0.54951,-1.73307 -2.24031,1.31037 -3.67748,1.98669 -4.56516,2.15577 -10.60975,2.15577 -8.32718,0 -12.85006,-5.24147 -2.19804,-2.5362 -2.19804,-5.66417 0,-3.50841 3.46614,-6.97454 6.72091,-6.72092 16.69662,-6.72092 6.0446,0 9.72208,2.78982 v -3.88884 q -1.85988,-2.36711 -3.63521,-3.17024 -1.73307,-0.80313 -4.77651,-0.71859 -6.80545,0.12681 -12.46962,2.49393 -2.5362,1.05674 -4.94558,1.90214 v -3.12797 q 0.5495,-0.46497 1.60625,-1.39491 0.16908,-0.21135 0.21135,-0.25362 v -10.90564 h -8.66533 v -5.07239 h 42.35446 z m -9.67981,26.75686 q 0,-1.85987 -4.43834,-3.33932 -3.67749,-1.22583 -6.12914,-1.22583 -8.91896,0 -14.28724,6.42503 -2.15576,2.57846 -2.15576,4.22699 0.88767,3.0857 6.97454,3.0857 7.8622,0 14.37177,-3.9311 5.66417,-3.42386 5.66417,-5.24147 z m 54.5282,-26.75686 h -45.44017 v -5.07239 h 45.44017 z m -9.08804,18.5565 q 0,-10.14478 -9.59527,-10.14478 -7.10135,0 -11.87785,7.4395 -4.22699,6.59411 -4.22699,14.03362 v 12.30054 l -6.93227,-3.63521 v -31.78698 h 7.27043 v 5.03012 l 3.76202,-2.83209 q 4.98785,-3.76202 10.52521,-3.76202 7.52405,0 12.46963,5.83325 4.64969,5.49509 4.64969,13.14595 0,9.59527 -8.11582,18.42968 l -8.1581,-5.11466 q 3.80429,-3.76202 6.4673,-6.93227 3.76202,-4.48061 3.76202,-12.00465 z m 55.75404,-18.5565 h -35.37993 v 27.09502 q 0,2.70528 1.14129,5.57963 2.32485,5.87552 7.69313,5.87552 7.22815,0 10.99018,-6.0446 2.91662,-4.64969 2.91662,-8.74987 v -16.82343 h 8.58079 v 36.01397 q -1.01447,-0.59178 -3.80429,-1.8176 l -4.86104,-2.15577 v -3.38159 q -4.98785,3.63521 -8.53852,4.60742 -2.15577,0.59178 -5.11466,0.59178 -9.38393,0 -14.66767,-8.24264 -2.40938,-3.76202 -2.40938,-8.20036 v -24.34748 h -5.11466 v -5.07239 h 48.56814 z m 42.60808,0 h -4.60743 v 16.0203 q -2.49392,-1.47945 -7.18588,-2.53619 -4.39607,-1.01448 -7.60859,-1.01448 -7.73539,0 -12.97686,2.74754 -2.9589,1.56399 -2.9589,4.10019 0,3.38159 3.55067,3.38159 2.15577,0 5.6219,-1.2681 2.24031,-0.80313 5.74871,-2.02895 1.47945,-0.50724 5.24147,-0.50724 7.3127,0 10.90564,4.52288 1.73307,2.15576 1.73307,5.07239 0,6.72092 -8.45398,10.56748 -3.50841,1.60626 -6.67865,1.81761 3.04343,3.04343 5.79098,3.04343 0.88767,0 1.90214,-0.25362 l 4.26927,6.97454 q -1.31037,1.14129 -5.36828,1.14129 -3.29706,0 -5.57963,-2.24031 -1.22583,-1.22583 -3.46614,-5.11466 -1.90214,-3.33932 -3.17024,-3.38159 -7.81994,-0.21135 -12.04693,-2.83209 -2.663,-1.64853 -2.663,-4.52288 0,-3.55067 4.22699,-3.55067 1.56398,0 6.50957,2.45165 4.98785,2.40939 8.20036,2.40939 6.42503,0 12.04693,-3.04344 2.74754,-1.47945 2.74754,-3.63521 0,-3.21252 -5.07239,-3.21252 -1.56398,0 -10.10251,2.28258 -5.03012,1.35264 -6.17141,1.35264 -6.72091,0 -11.07472,-6.34049 -2.11349,-3.04343 -2.11349,-6.55184 -0.0423,-7.14362 9.76435,-9.63754 4.01564,-1.01448 7.56632,-1.01448 4.05791,0 11.49741,1.98669 v -7.18589 H 418.3877 v -5.07239 h 43.62256 z m 45.98966,0 h -34.11183 v 12.72325 q 4.60742,-5.03012 8.53853,-6.4673 2.19803,-0.80313 4.94558,-0.80313 10.31386,0 15.42852,10.14478 2.2403,4.43834 2.2403,8.74988 0,7.8622 -6.46729,14.20269 -2.15577,2.1135 -3.21252,2.91662 l -6.93227,-4.14245 q 2.62074,-2.74754 5.96006,-6.76319 3.76203,-4.52288 3.8043,-11.41287 0.0423,-4.10019 -1.85988,-6.84773 -2.15577,-3.21252 -6.08687,-3.12798 -3.63521,0.0845 -7.77766,2.74755 -3.71976,2.36711 -6.17141,5.66417 -2.66301,3.55067 -2.66301,6.84773 v 16.78116 l -7.90447,-4.227 v -36.98618 h -4.6497 v -5.07239 h 4.6497 q 0,-12.42736 -6.4673,-21.2195 -3.88884,-5.28374 -7.18589,-7.43951 l 8.53853,-0.0845 q 7.10134,3.88884 11.28606,16.78116 1.98669,6.12914 1.98669,11.96239 h 34.11183 z"
        id="text1"
        fill="#fff"
        style="font-size:86.5688px;line-height:0;font-family:Samarkan;-inkscape-font-specification:Samarkan;letter-spacing:0px;word-spacing:0px;text-orientation:upright;stroke-width:0.264583;stroke-linecap:square;stroke-miterlimit:3.7;paint-order:fill markers stroke"
        aria-label="INDRADHANUSH" />
     <path
        d="m 15.513053,126.28406 q -0.16908,0.16908 -0.972209,0.16908 -0.676318,0 -1.183558,-0.16908 l -2.747545,-5.6219 Q 8.9189446,117.99915 6.0023199,117.06921 3.1279652,116.09701 2.4516464,114.95572 1.8175976,113.0113 -9.1269612e-6,108.99566 v -0.97221 H 1.6485179 q 3.254784,1.01448 5.2837403,1.90215 3.3393238,1.47945 4.4806118,3.42386 0.634049,1.05675 1.944416,5.41055 1.225828,4.10018 2.071227,5.70644 0.08454,0.76086 0.08454,1.81761 z m 2.493925,9.51073 H 0.80311941 V 130.7224 H 18.006978 Z m -4.818771,41.76268 -7.1013472,-3.9311 v -32.63238 h 7.1013472 z m 49.49808,-41.76268 H 17.24612 v -5.07239 h 45.440167 z m -9.088033,18.5565 q 0,-10.14478 -9.595273,-10.14478 -7.101347,0 -11.877848,7.4395 -4.226992,6.59411 -4.226992,14.03362 v 12.30054 l -6.932268,-3.63521 V 142.55798 H 28.2363 v 5.03012 l 3.762023,-2.83209 q 4.987851,-3.76202 10.525211,-3.76202 7.524046,0 12.469627,5.83325 4.649692,5.49509 4.649692,13.14595 0,9.59527 -8.115825,18.42968 l -8.158096,-5.11466 q 3.804294,-3.76202 6.467299,-6.93227 3.762023,-4.48061 3.762023,-12.00465 z m 57.064396,-18.5565 h -5.53736 l -0.0845,41.29772 -7.693127,-3.29706 v -6.0446 q -6.847727,8.83442 -13.441835,8.83442 -4.184723,0 -9.130304,-3.50841 -4.226992,-3.00116 -7.016807,-7.0168 -3.297054,-4.73424 -3.254784,-9.21485 0.04227,-4.10018 4.522882,-9.51073 5.030121,-6.08687 12.131468,-6.08687 4.522882,0 9.088033,3.84656 1.394908,1.14129 7.101347,7.35497 V 135.79479 H 61.164569 v -5.07239 h 36.183054 q 0,-8.74987 -1.479447,-13.69546 -2.198036,-7.35496 -9.806622,-17.499743 -0.16908,-0.08454 -0.16908,-0.676319 0,-0.507239 0.25362,-0.676319 h 8.073555 Q 105.12529,110.22149 105.12529,130.7224 h 5.53736 z m -15.343983,19.23282 q 0,-3.29706 -3.592943,-5.66417 -3.212515,-2.1135 -6.678648,-2.1135 -2.536196,0 -6.340489,2.36712 -8.284905,5.15693 -8.284905,12.17373 0,3.84657 2.071227,6.67865 2.282575,3.17025 5.960059,3.17025 3.804293,0 8.115825,-3.46614 3.001164,-2.40938 5.57963,-5.91779 3.170244,-4.31153 3.170244,-7.22815 z m 56.979853,-19.23282 h -42.73489 v -5.07239 h 42.73489 z m -3.5084,15.1749 q 0,2.49393 -3.00116,5.6219 -2.5362,2.66301 -5.32601,3.97338 l -6.34049,-7.18589 q 2.87435,-0.25362 5.45282,-2.1135 2.95889,-2.11349 2.95889,-4.81877 0,-1.43718 -1.85987,-2.45165 -1.60626,-0.92994 -3.17025,-0.92994 -3.25478,0 -6.97454,3.12797 -7.56631,6.34049 -7.56631,14.03362 v 17.92244 l -8.11583,-4.22699 v -31.27974 h 8.20037 v 3.21251 q 1.8176,-1.8176 7.52404,-3.80429 2.78982,-0.97221 5.74871,-0.97221 6.12914,0 10.3984,4.69196 2.07123,2.28258 2.07123,5.1992 z m 44.04526,-15.1749 h -28.15177 v 6.76319 q 0.16908,0 0.33816,0.16908 0.16908,0.16908 0.29589,0.16908 -0.33816,0 -0.38043,-0.0423 0,-0.21135 6.29822,-1.35264 2.32484,-0.4227 4.60742,-0.4227 9.51073,0 12.21601,5.32601 1.8176,3.55067 1.8176,14.32951 v 16.27392 q -0.88767,-0.33816 -6.72092,-2.74755 0,-1.35264 -0.5495,-1.73307 -2.24031,1.31037 -3.67749,1.98669 -4.56515,2.15577 -10.60975,2.15577 -8.32717,0 -12.85005,-5.24147 -2.19804,-2.5362 -2.19804,-5.66417 0,-3.50841 3.46613,-6.97454 6.72092,-6.72092 16.69662,-6.72092 6.0446,0 9.72208,2.78982 v -3.88884 q -1.85987,-2.36711 -3.63521,-3.17024 -1.73307,-0.80313 -4.7765,-0.71859 -6.80546,0.12681 -12.46963,2.49393 -2.53619,1.05674 -4.94558,1.90214 v -3.12797 q 0.54951,-0.46497 1.60626,-1.39491 0.16908,-0.21135 0.21135,-0.25362 v -10.90564 h -8.66534 v -5.07239 h 42.35447 z m -9.67982,26.75686 q 0,-1.85987 -4.43834,-3.33932 -3.67748,-1.22583 -6.12914,-1.22583 -8.91895,0 -14.28723,6.42503 -2.15577,2.57846 -2.15577,4.22699 0.88767,3.0857 6.97454,3.0857 7.86221,0 14.37178,-3.9311 5.66416,-3.42386 5.66416,-5.24147 z m 58.16343,-26.75686 h -5.53736 l -0.0845,41.29772 -7.69313,-3.29706 v -6.0446 q -6.84772,8.83442 -13.44183,8.83442 -4.18472,0 -9.1303,-3.50841 -4.227,-3.00116 -7.01681,-7.0168 -3.29706,-4.73424 -3.25479,-9.21485 0.0423,-4.10018 4.52289,-9.51073 5.03012,-6.08687 12.13146,-6.08687 4.52289,0 9.08804,3.84656 1.39491,1.14129 7.10134,7.35497 V 135.79479 H 191.82095 V 130.7224 H 228.004 q 0,-8.74987 -1.47944,-13.69546 -2.19804,-7.35496 -9.80662,-17.499743 -0.16908,-0.08454 -0.16908,-0.676319 0,-0.507239 0.25362,-0.676319 h 8.07355 q 10.90564,12.046931 10.90564,32.547841 h 5.53736 z m -15.34398,19.23282 q 0,-3.29706 -3.59294,-5.66417 -3.21252,-2.1135 -6.67865,-2.1135 -2.5362,0 -6.34049,2.36712 -8.28491,5.15693 -8.28491,12.17373 0,3.84657 2.07123,6.67865 2.28258,3.17025 5.96006,3.17025 3.80429,0 8.11582,-3.46614 3.00117,-2.40938 5.57963,-5.91779 3.17025,-4.31153 3.17025,-7.22815 z m 61.08002,-19.23282 h -34.11182 v 12.72325 q 4.60742,-5.03012 8.53852,-6.4673 2.19804,-0.80313 4.94558,-0.80313 10.31386,0 15.42852,10.14478 2.24031,4.43834 2.24031,8.74988 0,7.8622 -6.4673,14.20269 -2.15577,2.1135 -3.21251,2.91662 l -6.93227,-4.14245 q 2.62073,-2.74754 5.96006,-6.76319 3.76202,-4.52288 3.80429,-11.41287 0.0423,-4.10019 -1.85988,-6.84773 -2.15576,-3.21252 -6.08686,-3.12798 -3.63522,0.0845 -7.77767,2.74755 -3.71975,2.36711 -6.17141,5.66417 -2.663,3.55067 -2.663,6.84773 v 16.78116 l -7.90448,-4.227 v -36.98618 h -4.64969 v -5.07239 h 4.64969 q 0,-12.42736 -6.4673,-21.2195 -3.88883,-5.28374 -7.18588,-7.43951 l 8.53852,-0.0845 q 7.10135,3.88884 11.28607,16.78116 1.98669,6.12914 1.98669,11.96239 h 34.11182 z m 40.83276,0 h -28.15177 v 6.76319 q 0.16908,0 0.33816,0.16908 0.16908,0.16908 0.29589,0.16908 -0.33816,0 -0.38043,-0.0423 0,-0.21135 6.29822,-1.35264 2.32485,-0.4227 4.60742,-0.4227 9.51073,0 12.21601,5.32601 1.81761,3.55067 1.81761,14.32951 v 16.27392 q -0.88767,-0.33816 -6.72092,-2.74755 0,-1.35264 -0.54951,-1.73307 -2.24031,1.31037 -3.67748,1.98669 -4.56516,2.15577 -10.60975,2.15577 -8.32718,0 -12.85006,-5.24147 -2.19804,-2.5362 -2.19804,-5.66417 0,-3.50841 3.46614,-6.97454 6.72091,-6.72092 16.69662,-6.72092 6.0446,0 9.72208,2.78982 v -3.88884 q -1.85988,-2.36711 -3.63521,-3.17024 -1.73307,-0.80313 -4.77651,-0.71859 -6.80545,0.12681 -12.46962,2.49393 -2.5362,1.05674 -4.94558,1.90214 v -3.12797 q 0.5495,-0.46497 1.60625,-1.39491 0.16908,-0.21135 0.21135,-0.25362 v -10.90564 h -8.66533 v -5.07239 h 42.35446 z m -9.67981,26.75686 q 0,-1.85987 -4.43834,-3.33932 -3.67749,-1.22583 -6.12914,-1.22583 -8.91896,0 -14.28724,6.42503 -2.15576,2.57846 -2.15576,4.22699 0.88767,3.0857 6.97454,3.0857 7.8622,0 14.37177,-3.9311 5.66417,-3.42386 5.66417,-5.24147 z m 54.5282,-26.75686 h -45.44017 v -5.07239 h 45.44017 z m -9.08804,18.5565 q 0,-10.14478 -9.59527,-10.14478 -7.10135,0 -11.87785,7.4395 -4.22699,6.59411 -4.22699,14.03362 v 12.30054 l -6.93227,-3.63521 v -31.78698 h 7.27043 v 5.03012 l 3.76202,-2.83209 q 4.98785,-3.76202 10.52521,-3.76202 7.52405,0 12.46963,5.83325 4.64969,5.49509 4.64969,13.14595 0,9.59527 -8.11582,18.42968 l -8.1581,-5.11466 q 3.80429,-3.76202 6.4673,-6.93227 3.76202,-4.48061 3.76202,-12.00465 z m 55.75404,-18.5565 h -35.37993 v 27.09502 q 0,2.70528 1.14129,5.57963 2.32485,5.87552 7.69313,5.87552 7.22815,0 10.99018,-6.0446 2.91662,-4.64969 2.91662,-8.74987 v -16.82343 h 8.58079 v 36.01397 q -1.01447,-0.59178 -3.80429,-1.8176 l -4.86104,-2.15577 v -3.38159 q -4.98785,3.63521 -8.53852,4.60742 -2.15577,0.59178 -5.11466,0.59178 -9.38393,0 -14.66767,-8.24264 -2.40938,-3.76202 -2.40938,-8.20036 v -24.34748 h -5.11466 v -5.07239 h 48.56814 z m 42.60808,0 h -4.60743 v 16.0203 q -2.49392,-1.47945 -7.18588,-2.53619 -4.39607,-1.01448 -7.60859,-1.01448 -7.73539,0 -12.97686,2.74754 -2.9589,1.56399 -2.9589,4.10019 0,3.38159 3.55067,3.38159 2.15577,0 5.6219,-1.2681 2.24031,-0.80313 5.74871,-2.02895 1.47945,-0.50724 5.24147,-0.50724 7.3127,0 10.90564,4.52288 1.73307,2.15576 1.73307,5.07239 0,6.72092 -8.45398,10.56748 -3.50841,1.60626 -6.67865,1.81761 3.04343,3.04343 5.79098,3.04343 0.88767,0 1.90214,-0.25362 l 4.26927,6.97454 q -1.31037,1.14129 -5.36828,1.14129 -3.29706,0 -5.57963,-2.24031 -1.22583,-1.22583 -3.46614,-5.11466 -1.90214,-3.33932 -3.17024,-3.38159 -7.81994,-0.21135 -12.04693,-2.83209 -2.663,-1.64853 -2.663,-4.52288 0,-3.55067 4.22699,-3.55067 1.56398,0 6.50957,2.45165 4.98785,2.40939 8.20036,2.40939 6.42503,0 12.04693,-3.04344 2.74754,-1.47945 2.74754,-3.63521 0,-3.21252 -5.07239,-3.21252 -1.56398,0 -10.10251,2.28258 -5.03012,1.35264 -6.17141,1.35264 -6.72091,0 -11.07472,-6.34049 -2.11349,-3.04343 -2.11349,-6.55184 -0.0423,-7.14362 9.76435,-9.63754 4.01564,-1.01448 7.56632,-1.01448 4.05791,0 11.49741,1.98669 v -7.18589 H 418.3877 v -5.07239 h 43.62256 z m 45.98966,0 h -34.11183 v 12.72325 q 4.60742,-5.03012 8.53853,-6.4673 2.19803,-0.80313 4.94558,-0.80313 10.31386,0 15.42852,10.14478 2.2403,4.43834 2.2403,8.74988 0,7.8622 -6.46729,14.20269 -2.15577,2.1135 -3.21252,2.91662 l -6.93227,-4.14245 q 2.62074,-2.74754 5.96006,-6.76319 3.76203,-4.52288 3.8043,-11.41287 0.0423,-4.10019 -1.85988,-6.84773 -2.15577,-3.21252 -6.08687,-3.12798 -3.63521,0.0845 -7.77766,2.74755 -3.71976,2.36711 -6.17141,5.66417 -2.66301,3.55067 -2.66301,6.84773 v 16.78116 l -7.90447,-4.227 v -36.98618 h -4.6497 v -5.07239 h 4.6497 q 0,-12.42736 -6.4673,-21.2195 -3.88884,-5.28374 -7.18589,-7.43951 l 8.53853,-0.0845 q 7.10134,3.88884 11.28606,16.78116 1.98669,6.12914 1.98669,11.96239 h 34.11183 z"
        id="path1"
        fill="#fff"
        style="font-size:86.5688px;line-height:0;font-family:Samarkan;-inkscape-font-specification:Samarkan;letter-spacing:0px;word-spacing:0px;text-orientation:upright;stroke-width:0.264583;stroke-linecap:square;stroke-miterlimit:3.7;paint-order:fill markers stroke"
        aria-label="INDRADHANUSH" />
   </g>
 </svg>